# xmcd
#
# Track frame offsets: 
#        182
#        13307
#        23287
#        31832
#        44755
#        62065
#        76897
#        93087
#        103247
#        113585
#        124542
#        138095
#        151875
#        164595
#        175695
#        184900
#
# Disc length: 2636 seconds
#
# Revision: 4
# Processed by: cddbd v1.5.2PL0 Copyright (c) Steve Scherf et al.
# Submitted via: ExactAudioCopyFreeDBPlugin 1.0
#
DISCID=c00a4a10
DTITLE=Various Artist - Brown Eyed Soul:  The Sound of East L.A.
DYEAR=1997
DGENRE=Soul
TTITLE0=The Blendells - La La La La La
TTITLE1=Rene and Ray - Queen of My Heart
TTITLE2=Ritchie Valens - We Belong Together
TTITLE3=Johnny "Guitar" Watson - Those Lonely, Lonely Nights
TTITLE4=War - Why Can't We Be Friends?
TTITLE5=McKinley Travis - Baby, Is There Something On Your Mind
TTITLE6=Billy Stewart - Sitting in the Park
TTITLE7=The Paradons - Diamonds and Pearls
TTITLE8=The Gallahads - I'm Without a Girl Friend
TTITLE9=The Romancers - My Heart Cries
TTITLE10=Thee Midniters - Dreaming Casually
TTITLE11=Cannibal and The Headhunters - Please Baby Please
TTITLE12=Jesse Belvin - Beware
TTITLE13=The Premiers - Farmer John
TTITLE14=Brenton Wood - Baby You Got It
TTITLE15=Hank Jacobs - East Side
EXTD=
EXTT0=
EXTT1=
EXTT2=
EXTT3=
EXTT4=
EXTT5=
EXTT6=
EXTT7=
EXTT8=
EXTT9=
EXTT10=
EXTT11=
EXTT12=
EXTT13=
EXTT14=
EXTT15=
PLAYORDER=
